{"title":"Gandhi (1982) Ben Kingsley (Optional MULTISUBS)","uid":5039759,"size":861095148,"categoryP":"video","categoryS":"movies","magnet":"?xt=urn:btih:1dba47326f211a074b42efb15a28dce2b79308a9&amp;dn=Gandhi+%281982%29+Ben+Kingsley+%28Optional+MULTISUBS%29&amp;tr=udp%3A%2F%2Ftracker.openbittorrent.com%3A80&amp;tr=udp%3A%2F%2Fopen.demonii.com%3A1337&amp;tr=udp%3A%2F%2Ftracker.coppersurfer.tk%3A6969&amp;tr=udp%3A%2F%2Fexodus.desync.com%3A6969","seeders":6,"leechers":3,"uploader":"Kuthumi","files":-1,"time":1249315249,"description":" &lt;a href=&quot;http://www.imdb.com/title/tt0083987/&quot; rel=&quot;nofollow&quot; target=&quot;_NEW&quot;&gt;http://www.imdb.com/title/tt0083987/&lt;/a&gt;\n\nOptional subtitles in separate idx/sub files (Work in Windows Media Player etc., see enclosed Note): Arabic, Danish, Dutch, English, Finnish, French, German, Greek, Hebrew, Hindi, Icelandic, Norwegian, Swedish, Turkish. \n\nThis masterpiece by Richard Attenborough won 8 Oscars, about the most inspirational man who lived in modern times. Perhaps he still could give us back the hope of a peaceful solution to our troubled word.\n\nMy ripping procedure now produces decent quality for such a long film compressed \ninto just 800 MiB. I enclose a sample for ye weak in faith.\n\nWidescreen DVDrip XviD 2-pass 704x288, great stereo sound AC3.\nRuns well in both my standalone DivX players.\n\nMediaInfo analysis:\nFormat/Info                      : Audio Video Interleave\nFile size                        : 794 MiB\nDuration                         : 3h 3mn\nOveral bit rate                  : 605 Kbps\n\nVideo\nFormat                           : MPEG-4 Visual\nFormat profile                   : Streaming Video@L1\nFormat settings, BVOP            : Yes\nFormat settings, QPel            : No\nFormat settings, GMC             : No warppoints\nFormat settings, Matrix          : Default\nMuxing mode                      : Packet Bitstream\nCodec ID                         : XVID\nCodec ID/Hint                    : XviD\nDuration                         : 3h 3mn\nBit rate                         : 467 Kbps\nWidth                            : 704 pixels\nHeight                           : 288 pixels\nDisplay aspect ratio             : 2.444\nFrame rate                       : 25.000 fps\nResolution                       : 8 bits\nColorimetry                      : 4:2:0\nScan type                        : Progressive\nBits/(Pixel*Frame)               : 0.092\nStream size                      : 613 MiB\nWriting library                  : XviD 1.2.0.dev47 (UTC 2006-11-01)\n\nAudio\nFormat                           : MPEG Audio\nFormat version                   : Version 1\nFormat profile                   : Layer 3\nCodec ID                         : 55\nCodec ID/Hint                    : MP3\nDuration                         : 3h 3mn\nBit rate mode                    : Constant\nBit rate                         : 128 Kbps\nMinimum bit rate                 : 128 Kbps\nChannel(s)                       : 2 channels\nSampling rate                    : 48.0 KHz\nResolution                       : 16 bits\nStream size                      : 168 MiB\nWriting library                  : LAME3.97 \nEncoding settings                : CBR\n\nSource: PAL retail 7.8 Giga (note that PAL/NTSC will give no problems for avi files).\n","torrent":{"xt":"urn:btih:1dba47326f211a074b42efb15a28dce2b79308a9","amp;dn":"Gandhi+%281982%29+Ben+Kingsley+%28Optional+MULTISUBS%29","amp;tr":["udp%3A%2F%2Ftracker.openbittorrent.com%3A80","udp%3A%2F%2Fopen.demonii.com%3A1337","udp%3A%2F%2Ftracker.coppersurfer.tk%3A6969","udp%3A%2F%2Fexodus.desync.com%3A6969"],"infoHash":"1dba47326f211a074b42efb15a28dce2b79308a9","infoHashBuffer":{"type":"Buffer","data":[29,186,71,50,111,33,26,7,75,66,239,177,90,40,220,226,183,147,8,169]},"announce":[],"urlList":[]}}